<?xml version="1.0" encoding="UTF-8" standalone="no"?>
<!DOCTYPE svg PUBLIC "-//W3C//DTD SVG 1.1//EN" "http://www.w3.org/Graphics/SVG/1.1/DTD/svg11.dtd">
<svg width="100%" height="100%" viewBox="0 0 1265 286" version="1.1" xmlns="http://www.w3.org/2000/svg" xmlns:xlink="http://www.w3.org/1999/xlink" xml:space="preserve" xmlns:serif="http://www.serif.com/" style="fill-rule:evenodd;clip-rule:evenodd;stroke-linejoin:round;stroke-miterlimit:2;">
    <g transform="matrix(1,0,0,1,-662.299287,-798.106112)">
        <g id="logo" transform="matrix(2.470548,0,0,0.557102,662.299287,798.106112)">
            <rect x="0" y="0" width="512" height="512" style="fill:none;"/>
            <g transform="matrix(0.345189,0,0,1.530791,-293.836895,-1730.974812)">
                <path d="M853.701,1208.43L1146.3,1208.43L1146.3,1233.57L1145.95,1233.57C1131,1233.57 1114.73,1235.07 1114.73,1250.02L1114.73,1399.92L1066.64,1426.36L1066.64,1320.01C1066.64,1297.11 1048.079,1278.55 1025.18,1278.55L1025.18,1449.16L1000,1463L974.819,1449.16L974.819,1278.55C951.92,1278.55 933.358,1297.11 933.358,1320.01L933.358,1426.36L885.266,1399.92L885.266,1250.02C885.266,1235.069 868.998,1233.57 854.047,1233.57L853.701,1233.57L853.701,1208.43ZM1114.733,1170.72L1114.733,1195.86L885.269,1195.86L885.269,1170.72L1114.733,1170.72ZM1066.642,1133.01L1066.642,1158.15L933.359,1158.15L933.359,1133.01L1066.642,1133.01Z" style="fill:rgb(249,115,22);"/>
            </g>
            <g transform="matrix(1.697564,0,0,7.528089,-899.678687,-5658.180325)">
                <path d="M613.424,803.84L613.424,776.34L603.024,776.34L603.024,768.84L632.574,768.84L632.574,776.34L621.924,776.34L621.924,803.84L613.424,803.84ZM643.428,780.427C643.548,780.287 643.673,780.15 643.803,780.015C644.753,779.032 645.895,778.24 647.228,777.64C648.562,777.04 649.962,776.74 651.428,776.74C653.428,776.74 655.112,777.148 656.478,777.965C657.845,778.782 658.878,779.998 659.578,781.615C660.278,783.232 660.628,785.207 660.628,787.54L660.628,803.84L652.578,803.84L652.578,788.19C652.578,787.123 652.428,786.24 652.128,785.54C651.828,784.84 651.37,784.315 650.753,783.965C650.137,783.615 649.378,783.457 648.478,783.49C647.778,783.49 647.128,783.598 646.528,783.815C645.928,784.032 645.412,784.348 644.978,784.765C644.545,785.182 644.203,785.657 643.953,786.19C643.703,786.723 643.578,787.307 643.578,787.94L643.578,803.84L635.578,803.84L635.578,766.84L643.428,766.84L643.428,780.427ZM670.623,792.29C670.776,792.873 670.995,793.414 671.28,793.915C671.897,794.998 672.797,795.84 673.98,796.44C675.164,797.04 676.572,797.34 678.205,797.34C679.339,797.34 680.347,797.173 681.23,796.84C682.114,796.507 683.072,795.94 684.105,795.14L687.855,800.44C686.822,801.34 685.722,802.073 684.555,802.64C683.389,803.207 682.197,803.632 680.98,803.915C679.764,804.198 678.555,804.34 677.355,804.34C674.422,804.34 671.872,803.748 669.705,802.565C667.539,801.382 665.855,799.765 664.655,797.715C663.455,795.665 662.855,793.323 662.855,790.69C662.855,788.657 663.189,786.79 663.855,785.09C664.522,783.39 665.455,781.915 666.655,780.665C667.855,779.415 669.28,778.448 670.93,777.765C672.58,777.082 674.389,776.74 676.355,776.74C678.222,776.74 679.93,777.073 681.48,777.74C683.03,778.407 684.372,779.34 685.505,780.54C686.639,781.74 687.505,783.157 688.105,784.79C688.705,786.423 688.972,788.207 688.905,790.14L688.855,792.29L670.623,792.29ZM670.599,787.79L681.505,787.79L681.505,787.74C681.439,786.907 681.18,786.165 680.73,785.515C680.28,784.865 679.689,784.357 678.955,783.99C678.222,783.623 677.389,783.44 676.455,783.44C675.155,783.44 674.047,783.698 673.13,784.215C672.214,784.732 671.522,785.482 671.055,786.465C670.864,786.869 670.711,787.311 670.599,787.79ZM705.313,804.34C702.546,804.34 700.088,803.74 697.938,802.54C695.788,801.34 694.088,799.707 692.838,797.64C691.588,795.573 690.963,793.207 690.963,790.54C690.963,787.873 691.588,785.507 692.838,783.44C694.088,781.373 695.788,779.74 697.938,778.54C700.088,777.34 702.546,776.74 705.313,776.74C708.08,776.74 710.538,777.34 712.688,778.54C714.838,779.74 716.53,781.373 717.763,783.44C718.996,785.507 719.613,787.873 719.613,790.54C719.613,793.207 718.996,795.573 717.763,797.64C716.53,799.707 714.838,801.34 712.688,802.54C710.538,803.74 708.08,804.34 705.313,804.34ZM705.313,797.44C706.513,797.44 707.58,797.14 708.513,796.54C709.446,795.94 710.18,795.123 710.713,794.09C711.246,793.057 711.496,791.873 711.463,790.54C711.496,789.207 711.246,788.015 710.713,786.965C710.18,785.915 709.446,785.09 708.513,784.49C707.58,783.89 706.513,783.59 705.313,783.59C704.113,783.59 703.038,783.89 702.088,784.49C701.138,785.09 700.396,785.915 699.863,786.965C699.33,788.015 699.08,789.207 699.113,790.54C699.08,791.873 699.33,793.057 699.863,794.09C700.396,795.123 701.138,795.94 702.088,796.54C703.038,797.14 704.113,797.44 705.313,797.44ZM729.659,800.964L729.452,803.79L722.002,803.79L722.002,766.84L730.052,766.84L730.052,780.017C730.523,779.506 731.073,779.038 731.702,778.615C732.569,778.032 733.519,777.573 734.552,777.24C735.585,776.907 736.652,776.74 737.752,776.74C740.052,776.74 742.094,777.332 743.877,778.515C745.66,779.698 747.069,781.332 748.102,783.415C749.135,785.498 749.652,787.873 749.652,790.54C749.652,793.24 749.144,795.632 748.127,797.715C747.11,799.798 745.719,801.432 743.952,802.615C742.185,803.798 740.185,804.39 737.952,804.39C736.752,804.39 735.602,804.223 734.502,803.89C733.402,803.557 732.41,803.107 731.527,802.54C730.804,802.076 730.181,801.551 729.659,800.964ZM735.852,797.64C737.052,797.64 738.102,797.34 739.002,796.74C739.902,796.14 740.594,795.315 741.077,794.265C741.56,793.215 741.802,791.973 741.802,790.54C741.802,789.14 741.56,787.907 741.077,786.84C740.594,785.773 739.902,784.957 739.002,784.39C738.102,783.823 737.052,783.54 735.852,783.54C734.619,783.54 733.552,783.823 732.652,784.39C731.752,784.957 731.052,785.773 730.552,786.84C730.052,787.907 729.802,789.14 729.802,790.54C729.802,791.973 730.052,793.215 730.552,794.265C731.052,795.315 731.752,796.14 732.652,796.74C733.552,797.34 734.619,797.64 735.852,797.64ZM771.51,800.676C771.016,801.252 770.449,801.773 769.81,802.24C768.943,802.873 767.976,803.373 766.91,803.74C765.843,804.107 764.71,804.29 763.51,804.29C761.276,804.29 759.285,803.698 757.535,802.515C755.785,801.332 754.393,799.698 753.36,797.615C752.326,795.532 751.81,793.173 751.81,790.54C751.81,787.84 752.326,785.457 753.36,783.39C754.393,781.323 755.81,779.698 757.61,778.515C759.41,777.332 761.46,776.74 763.76,776.74C765.026,776.74 766.185,776.923 767.235,777.29C768.285,777.657 769.21,778.165 770.01,778.815C770.63,779.319 771.18,779.883 771.66,780.507L771.66,777.29L779.61,777.29L779.61,803.84L771.51,803.84L771.51,800.676ZM765.71,797.54C766.943,797.54 768.01,797.257 768.91,796.69C769.81,796.123 770.51,795.315 771.01,794.265C771.51,793.215 771.76,791.973 771.76,790.54C771.76,789.107 771.51,787.865 771.01,786.815C770.51,785.765 769.81,784.948 768.91,784.365C768.01,783.782 766.943,783.49 765.71,783.49C764.51,783.49 763.468,783.782 762.585,784.365C761.701,784.948 761.01,785.765 760.51,786.815C760.01,787.865 759.76,789.107 759.76,790.54C759.76,791.973 760.01,793.215 760.51,794.265C761.01,795.315 761.701,796.123 762.585,796.69C763.468,797.257 764.51,797.54 765.71,797.54ZM792.987,804.34C790.387,804.34 788.095,803.923 786.112,803.09C784.128,802.257 782.553,801.14 781.387,799.74L786.237,795.54C787.27,796.573 788.437,797.332 789.737,797.815C791.037,798.298 792.27,798.54 793.437,798.54C793.903,798.54 794.32,798.49 794.687,798.39C795.053,798.29 795.362,798.148 795.612,797.965C795.862,797.782 796.053,797.565 796.187,797.315C796.32,797.065 796.387,796.773 796.387,796.44C796.387,795.773 796.087,795.257 795.487,794.89C795.187,794.723 794.687,794.523 793.987,794.29C793.287,794.057 792.387,793.79 791.287,793.49C789.72,793.09 788.362,792.615 787.212,792.065C786.062,791.515 785.12,790.873 784.387,790.14C783.72,789.44 783.203,788.665 782.837,787.815C782.47,786.965 782.287,786.007 782.287,784.94C782.287,783.707 782.578,782.59 783.162,781.59C783.745,780.59 784.528,779.723 785.512,778.99C786.495,778.257 787.628,777.698 788.912,777.315C790.195,776.932 791.52,776.74 792.887,776.74C794.353,776.74 795.753,776.907 797.087,777.24C798.42,777.573 799.662,778.04 800.812,778.64C801.962,779.24 802.987,779.957 803.887,780.79L799.687,785.49C799.087,784.923 798.412,784.415 797.662,783.965C796.912,783.515 796.137,783.157 795.337,782.89C794.537,782.623 793.803,782.49 793.137,782.49C792.637,782.49 792.195,782.532 791.812,782.615C791.428,782.698 791.103,782.832 790.837,783.015C790.57,783.198 790.37,783.415 790.237,783.665C790.103,783.915 790.037,784.207 790.037,784.54C790.037,784.873 790.128,785.19 790.312,785.49C790.495,785.79 790.753,786.04 791.087,786.24C791.42,786.44 791.953,786.665 792.687,786.915C793.42,787.165 794.42,787.473 795.687,787.84C797.253,788.273 798.603,788.757 799.737,789.29C800.87,789.823 801.77,790.457 802.437,791.19C802.97,791.757 803.37,792.415 803.637,793.165C803.903,793.915 804.037,794.723 804.037,795.59C804.037,797.29 803.562,798.798 802.612,800.115C801.662,801.432 800.353,802.465 798.687,803.215C797.02,803.965 795.12,804.34 792.987,804.34ZM812.797,792.29C812.95,792.873 813.169,793.414 813.454,793.915C814.071,794.998 814.971,795.84 816.154,796.44C817.338,797.04 818.746,797.34 820.379,797.34C821.513,797.34 822.521,797.173 823.404,796.84C824.288,796.507 825.246,795.94 826.279,795.14L830.029,800.44C828.996,801.34 827.896,802.073 826.729,802.64C825.563,803.207 824.371,803.632 823.154,803.915C821.938,804.198 820.729,804.34 819.529,804.34C816.596,804.34 814.046,803.748 811.879,802.565C809.713,801.382 808.029,799.765 806.829,797.715C805.629,795.665 805.029,793.323 805.029,790.69C805.029,788.657 805.363,786.79 806.029,785.09C806.696,783.39 807.629,781.915 808.829,780.665C810.029,779.415 811.454,778.448 813.104,777.765C814.754,777.082 816.563,776.74 818.529,776.74C820.396,776.74 822.104,777.073 823.654,777.74C825.204,778.407 826.546,779.34 827.679,780.54C828.813,781.74 829.679,783.157 830.279,784.79C830.879,786.423 831.146,788.207 831.079,790.14L831.029,792.29L812.797,792.29ZM812.772,787.79L823.679,787.79L823.679,787.74C823.613,786.907 823.354,786.165 822.904,785.515C822.454,784.865 821.863,784.357 821.129,783.99C820.396,783.623 819.563,783.44 818.629,783.44C817.329,783.44 816.221,783.698 815.304,784.215C814.388,784.732 813.696,785.482 813.229,786.465C813.038,786.869 812.885,787.311 812.772,787.79Z" style="fill:rgb(107,114,128);"/>
            </g>
        </g>
    </g>
</svg>
