<?xml version="1.0" encoding="UTF-8" standalone="no"?>
<!DOCTYPE svg PUBLIC "-//W3C//DTD SVG 1.1//EN" "http://www.w3.org/Graphics/SVG/1.1/DTD/svg11.dtd">
<svg width="100%" height="100%" viewBox="0 0 243 210" version="1.1" xmlns="http://www.w3.org/2000/svg" xmlns:xlink="http://www.w3.org/1999/xlink" xml:space="preserve" xmlns:serif="http://www.serif.com/" style="fill-rule:evenodd;clip-rule:evenodd;stroke-linejoin:round;stroke-miterlimit:2;">
    <g transform="matrix(1,0,0,1,-1764,-30.544307)">
        <g id="Artboard1" transform="matrix(1,0,0,0.863767,-0.440912,18.22073)">
            <rect x="1764.441" y="14.267" width="242.883" height="242.883" style="fill:none;"/>
            <g transform="matrix(2.067688,0,0,0.489941,1764.742436,13.22345)">
                <g transform="matrix(0.068135,0,0,0.332899,-17.645169,-110.683939)">
                    <path d="M1253.111,1384.116L820.864,865.621L1118.85,349.504L1542.601,1083.462L1253.111,1384.116Z" style="fill:rgb(147,197,253);fill-rule:nonzero;"/>
                </g>
                <g transform="matrix(0.313392,0,0,1.5312,-19.760822,-132.8001)">
                    <path d="M185.216,202.639L279.191,315.365L188.484,409.57L65.743,409.57L185.216,202.639Z" style="fill:rgb(96,165,250);"/>
                </g>
                <g transform="matrix(0.313392,0,0,1.5312,-19.760822,-132.8001)">
                    <path d="M342.129,250L434.257,409.57L357.725,409.57L279.191,315.365L342.129,250Z" style="fill:rgb(59,130,246);"/>
                </g>
                <g transform="matrix(0.313392,0,0,1.5312,-19.760822,-132.8001)">
                    <path d="M279.191,315.365L357.725,409.57L188.484,409.57L279.191,315.365Z" style="fill:rgb(37,99,235);"/>
                </g>
            </g>
        </g>
    </g>
</svg>
